<?xml version="1.0" standalone="no"?>
<!DOCTYPE svg PUBLIC "-//W3C//DTD SVG 20010904//EN"
 "http://www.w3.org/TR/2001/REC-SVG-20010904/DTD/svg10.dtd">
<svg version="1.0" xmlns="http://www.w3.org/2000/svg"
 width="2893.000000pt" height="4092.000000pt" viewBox="0 0 2893.000000 4092.000000"
 preserveAspectRatio="xMidYMid meet">

<g transform="translate(0.000000,4092.000000) scale(0.100000,-0.100000)"
fill="#000000" stroke="none">
<path id="path1" d="M13675 30164 c-27 -2 -120 -8 -205 -14 -328 -23 -774 -82 -1085 -144
-133 -27 -161 -33 -275 -60 -36 -8 -105 -25 -155 -36 -49 -12 -103 -26 -120
-31 -16 -5 -77 -22 -135 -38 -324 -90 -677 -210 -886 -301 -63 -27 -119 -50
-124 -50 -18 0 -474 -211 -646 -300 -244 -126 -529 -288 -651 -371 -23 -16
-44 -29 -47 -29 -8 0 -297 -194 -386 -259 -404 -295 -587 -445 -920 -756 -204
-191 -512 -517 -690 -730 -41 -49 -79 -95 -85 -101 -102 -115 -350 -452 -515
-699 -834 -1248 -1335 -2689 -1460 -4201 -41 -483 -32 -1174 21 -1644 48 -433
108 -770 219 -1230 13 -55 49 -191 60 -225 5 -16 26 -86 46 -155 111 -381 250
-747 427 -1130 94 -205 231 -477 294 -585 22 -38 56 -100 76 -137 20 -37 54
-94 74 -127 21 -33 63 -101 93 -151 30 -50 70 -110 88 -135 17 -24 32 -46 32
-50 0 -3 37 -58 81 -123 86 -123 118 -168 215 -296 32 -43 66 -88 74 -100 8
-11 28 -38 45 -58 16 -20 40 -49 52 -65 12 -15 74 -91 139 -168 471 -560 1028
-1078 1599 -1488 712 -511 1481 -908 2310 -1194 947 -326 1984 -489 2990 -469
176 3 347 8 380 10 33 3 101 8 150 11 260 17 669 71 953 125 28 5 78 15 110
21 200 37 611 141 827 209 55 17 129 39 165 49 36 11 83 26 105 36 22 9 69 26
105 37 36 11 108 37 160 58 52 21 138 55 190 75 182 70 191 74 465 200 116 54
221 105 235 115 14 9 52 31 85 47 196 100 355 189 491 276 41 26 77 47 81 47
3 0 39 22 79 50 40 27 76 50 78 50 5 0 80 50 231 154 62 43 170 122 394 291
352 266 818 704 1175 1105 463 520 911 1172 1168 1700 28 58 57 112 63 120 7
8 23 42 36 75 12 33 27 64 31 70 4 5 8 22 8 37 0 15 9 37 20 48 11 11 20 23
20 26 0 3 20 47 45 98 25 52 45 96 45 99 0 3 15 38 34 79 18 40 41 95 50 123
10 27 21 54 25 60 4 5 13 28 20 50 7 22 22 60 33 85 11 25 24 56 28 70 5 14
25 70 45 125 20 55 42 118 49 140 22 69 64 208 76 255 7 25 18 61 25 80 8 19
24 69 36 110 12 41 35 113 51 160 100 289 126 374 142 450 9 47 21 104 26 128
6 23 10 52 10 64 0 12 4 35 9 52 5 17 17 58 26 91 10 33 21 69 26 80 18 44 36
255 21 255 -5 0 -12 -12 -14 -27 -14 -82 -109 -416 -173 -608 -221 -661 -508
-1245 -902 -1837 -139 -211 -140 -212 -217 -159 -24 17 -122 107 -218 200 -96
94 -188 181 -204 192 -16 12 -51 44 -79 70 -27 26 -64 58 -82 71 -28 20 -225
190 -262 226 -24 23 -151 126 -195 157 -24 17 -71 53 -107 81 -35 28 -98 71
-139 96 -127 75 -167 84 -154 32 5 -19 2 -24 -14 -24 -39 0 -43 -24 -9 -50 17
-14 47 -39 67 -55 19 -17 71 -55 115 -85 115 -78 190 -135 290 -220 161 -137
199 -169 255 -212 70 -55 384 -304 474 -377 98 -78 256 -231 256 -246 0 -17
-99 -150 -219 -295 -374 -453 -765 -833 -1216 -1186 -202 -158 -211 -164 -237
-164 -14 0 -64 27 -112 60 -49 33 -92 60 -96 60 -5 0 -19 13 -32 29 -14 18
-68 52 -137 87 -107 53 -115 55 -128 38 -15 -20 -13 -21 -36 29 -21 46 -22 71
-2 87 27 23 17 48 -27 72 l-43 22 40 8 c87 18 84 15 101 76 9 31 26 74 38 94
11 20 17 40 13 44 -4 4 -58 -5 -120 -20 -151 -36 -171 -37 -175 -8 -2 13 4 34
13 48 9 14 23 43 30 65 8 22 24 53 35 69 31 43 25 56 -35 80 -30 12 -55 28
-55 36 0 8 21 25 48 38 110 56 130 111 60 169 -24 20 -48 53 -58 77 -26 67
-35 56 -55 -71 -4 -30 -12 -40 -39 -53 -62 -29 -84 -22 -111 36 -19 40 -22 61
-18 100 l6 48 -68 31 c-83 37 -127 46 -141 27 -6 -7 -18 -34 -28 -61 -10 -26
-27 -53 -39 -60 -14 -8 -66 -12 -147 -12 -152 0 -150 3 -87 -140 64 -149 82
-215 71 -267 -9 -43 -10 -43 -49 -40 -49 4 -67 22 -92 92 -14 39 -18 65 -12
90 4 19 3 42 -2 51 -9 18 -155 79 -188 79 -24 0 -51 -36 -51 -67 0 -36 -40
-74 -80 -76 -45 -3 -49 16 -16 86 45 94 33 117 -58 117 -75 0 -135 -16 -143
-37 -4 -9 2 -30 12 -47 32 -55 63 -143 55 -157 -7 -10 -25 -10 -83 -3 -42 5
-80 8 -86 6 -20 -7 -12 -51 23 -130 49 -113 83 -194 91 -219 9 -31 -7 -55 -46
-68 -61 -21 -63 -55 -8 -138 33 -50 65 -61 89 -32 7 8 15 15 19 15 51 -1 90
-231 67 -397 -9 -66 -2 -78 29 -47 26 27 72 125 85 185 12 53 9 205 -6 321 -5
37 -2 49 13 63 33 31 128 97 160 113 30 14 34 14 52 -2 10 -10 26 -36 34 -59
8 -23 27 -75 42 -115 30 -79 25 -102 -21 -102 -29 0 -49 29 -65 95 -18 71 -23
75 -90 75 -48 0 -59 -3 -64 -19 -7 -23 69 -217 96 -246 19 -19 19 -19 64 3 25
12 51 22 57 22 6 0 31 -21 55 -46 37 -40 46 -45 70 -39 15 3 46 26 70 49 37
37 43 49 43 86 0 45 -29 137 -92 296 -44 108 -45 144 -8 164 17 9 20 8 20 -12
0 -32 9 -42 57 -67 31 -15 53 -20 80 -16 32 5 43 2 68 -21 17 -15 54 -42 83
-61 75 -48 72 -67 -24 -177 -42 -48 -82 -90 -89 -92 -17 -7 -78 -84 -72 -91
10 -10 188 111 274 186 85 74 98 81 152 81 42 0 51 -3 51 -18 0 -32 -39 -126
-57 -137 -10 -5 -88 -41 -173 -78 -85 -38 -178 -79 -206 -93 -28 -13 -55 -24
-59 -24 -5 0 -27 -9 -49 -19 -137 -65 -169 -74 -286 -80 l-115 -6 -3 -27 c-2
-15 18 -76 47 -145 104 -247 124 -311 102 -337 -7 -8 -42 -26 -79 -41 -81 -32
-99 -50 -75 -77 9 -10 21 -18 28 -18 16 0 615 302 895 452 129 69 290 154 357
189 l123 64 62 -33 c89 -46 172 -104 175 -122 2 -10 -58 -54 -165 -123 -367
-237 -468 -295 -832 -478 -286 -144 -440 -211 -675 -295 -99 -35 -209 -75
-245 -88 -118 -43 -379 -122 -545 -165 -614 -158 -1227 -238 -1860 -242 -348
-3 -443 0 -457 15 -10 10 -19 11 -38 4 -49 -19 -445 20 -825 83 -409 67 -1039
225 -1078 272 -13 15 -21 17 -26 9 -8 -14 -108 17 -351 108 -1523 573 -2808
1599 -3709 2964 -74 112 -83 132 -68 144 6 6 71 20 142 31 226 37 305 51 505
91 107 21 245 44 305 50 61 6 128 15 150 20 22 6 198 21 390 35 193 14 379 29
415 35 36 5 112 14 170 20 58 6 130 15 160 21 30 5 98 16 150 24 91 15 143 35
90 35 -69 1 -92 27 -40 47 17 6 30 16 30 22 0 14 -232 15 -367 1 -54 -5 -253
-14 -443 -20 -204 -6 -416 -19 -520 -30 -181 -21 -531 -72 -610 -89 -25 -6
-71 -10 -103 -11 -78 0 -258 -38 -392 -81 -16 -5 -57 -12 -91 -16 -68 -6 -83
3 -120 74 -11 21 -37 69 -59 108 -45 76 -225 439 -274 548 -17 38 -35 66 -41
62 -9 -6 -100 -141 -100 -150 0 -5 -747 -1181 -822 -1294 -29 -44 -57 -80 -61
-80 -10 -1 47 109 125 242 32 54 58 100 58 102 0 2 50 88 111 192 62 103 150
253 197 333 101 171 291 490 385 645 37 60 67 114 67 120 0 5 -24 73 -55 150
-30 77 -74 195 -96 263 -24 71 -46 121 -53 119 -6 -2 -33 -38 -61 -80 -248
-383 -659 -1001 -895 -1347 -63 -93 -187 -276 -275 -407 -157 -234 -206 -284
-124 -127 66 127 246 430 364 614 23 36 66 103 96 150 150 234 594 895 754
1120 126 178 122 169 103 232 -9 29 -36 122 -60 205 -23 84 -47 151 -53 150
-10 -4 -30 -31 -195 -269 -93 -133 -313 -428 -372 -499 -21 -24 -46 -55 -57
-69 -47 -59 -13 -4 94 150 149 215 454 671 490 734 l28 48 -21 87 c-56 226
-111 546 -96 561 9 8 107 33 206 50 25 5 68 15 95 24 62 19 127 34 231 52 115
20 309 78 330 98 2 3 -12 15 -32 27 -40 23 -40 23 -26 49 17 31 -43 44 -172
36 -127 -8 -209 -21 -447 -71 -95 -20 -185 -35 -199 -33 -32 4 -39 25 -52 183
-71 828 -39 1507 107 2258 35 181 38 190 67 211 30 22 168 72 466 167 74 23
142 47 150 51 8 5 33 14 55 22 l40 13 0 69 0 69 -62 3 c-68 3 -247 -34 -446
-93 -121 -36 -157 -42 -157 -26 0 20 83 299 135 456 223 666 542 1313 923
1870 205 300 350 487 394 508 18 8 80 24 138 36 58 12 139 32 180 43 358 99
363 101 380 135 8 16 36 43 62 58 30 19 44 33 38 39 -19 19 -193 5 -475 -39
-55 -9 -93 -11 -99 -5 -13 13 53 87 293 329 385 389 736 677 1200 989 137 91
221 143 461 283 105 61 247 136 360 190 58 28 134 65 170 83 70 36 443 196
455 196 4 0 59 21 123 47 110 43 182 67 447 149 194 60 398 113 625 163 265
57 620 109 955 140 149 14 548 32 675 31 52 -1 107 -1 122 -1 26 1 39 14 255
255 24 27 42 53 40 59 -5 16 -37 23 -267 62 -510 88 -850 116 -1415 120 -242
1 -462 1 -490 -1z m-5645 -6274 c0 -5 -10 -10 -22 -9 -22 0 -22 1 -3 9 11 5
21 9 23 9 1 1 2 -3 2 -9z m75 -79 c-3 -6 -14 -11 -24 -11 -10 0 -31 -6 -47
-14 -16 -8 -41 -18 -57 -21 -22 -6 -26 -4 -21 9 3 9 22 20 43 25 20 5 52 14
71 19 39 10 45 8 35 -7z m-908 -6633 c42 -41 43 -41 81 -30 81 24 89 14 40
-54 l-32 -44 43 -80 c31 -59 38 -80 27 -80 -8 0 -17 4 -21 10 -3 5 -30 17 -60
26 l-55 18 -38 -37 c-21 -20 -43 -37 -49 -37 -13 0 -23 33 -23 76 0 38 -16 53
-64 61 -20 3 -36 11 -36 19 0 14 44 48 77 58 21 7 53 77 53 118 0 27 10 23 57
-24z m1667 -136 c6 -10 -8 -102 -24 -157 -6 -22 -15 -60 -20 -85 -4 -25 -16
-83 -26 -129 l-18 -85 34 -25 c19 -14 62 -50 95 -79 33 -28 94 -78 135 -109
70 -54 73 -58 50 -64 -14 -4 -97 -4 -185 -1 -176 5 -205 0 -205 -43 0 -13 -4
-34 -9 -47 -5 -13 -21 -63 -37 -113 -15 -49 -34 -98 -43 -108 -14 -17 -17 -15
-41 35 -14 29 -38 76 -52 103 -15 28 -45 89 -67 138 l-40 87 -180 0 c-183 0
-211 3 -211 24 0 14 63 75 198 190 113 97 111 93 76 174 -8 17 -20 47 -28 65
-51 116 -68 188 -47 201 12 8 76 -37 186 -131 l97 -82 81 56 c45 30 104 76
132 101 83 74 136 105 149 84z m9914 -79 c11 -16 25 -46 32 -68 18 -57 55
-127 77 -147 12 -11 39 -18 77 -20 34 -2 61 -8 63 -15 2 -6 -8 -25 -24 -43
-20 -22 -57 -41 -135 -69 -127 -47 -245 -78 -254 -68 -4 4 8 39 27 79 38 83
48 165 29 238 -7 25 -14 62 -17 82 -4 33 -2 39 18 47 47 19 86 13 107 -16z
m-601 -268 c26 -18 86 -159 78 -184 -3 -10 -25 -28 -48 -39 -114 -57 -157 -73
-175 -68 -28 9 -106 193 -95 223 9 22 152 81 198 83 11 0 30 -7 42 -15z m813
-145 c0 -41 -31 -98 -59 -108 -40 -14 -151 21 -151 49 0 12 11 24 33 33 71 31
114 44 145 45 26 1 32 -3 32 -19z m103 -484 c17 -17 97 -260 97 -294 0 -14
-11 -29 -32 -42 -42 -25 -74 -25 -88 0 -18 34 -90 253 -90 275 0 25 23 49 60
64 34 13 36 13 53 -3z m295 -82 c18 -12 22 -24 20 -52 -4 -47 -33 -57 -41 -14
-3 16 -9 41 -13 56 -7 30 2 33 34 10z m-602 -52 c6 -4 16 -17 22 -28 21 -40
92 -257 92 -281 0 -42 -92 -82 -118 -50 -19 24 -95 253 -96 291 -1 34 3 40 34
57 38 21 49 23 66 11z m-293 -134 c18 -14 107 -254 114 -308 4 -32 1 -37 -30
-53 -64 -35 -76 -25 -120 98 -21 61 -45 126 -53 145 -21 55 -17 86 12 109 30
24 53 26 77 9z m-7773 -1073 c20 -24 -3 -65 -35 -65 -32 0 -55 41 -35 65 7 8
23 15 35 15 12 0 28 -7 35 -15z m-1014 -96 c54 -42 71 -50 92 -45 82 20 108
23 129 15 31 -12 29 -36 -8 -94 -17 -26 -31 -55 -32 -64 -1 -16 39 -83 80
-134 13 -16 20 -33 17 -38 -3 -6 -42 -9 -87 -7 -78 3 -82 2 -94 -22 -6 -14
-30 -43 -53 -65 -40 -39 -40 -39 -60 -19 -11 11 -28 51 -38 89 l-18 70 -79 39
c-44 21 -87 42 -95 46 -41 19 1 71 70 86 79 18 80 20 80 104 0 110 3 111 96
39z m1290 -330 c42 -39 57 -77 52 -129 -9 -90 -78 -146 -168 -138 -82 8 -130
62 -130 145 0 57 25 104 72 134 47 29 137 23 174 -12z"/>
<path id="path2" d="M17983 16614 c-3 -10 4 -26 20 -42 15 -15 42 -44 61 -64 38 -42 73
-49 99 -20 36 39 11 103 -49 128 -47 20 -123 18 -131 -2z"/>
<path id="path3" d="M15897 29948 c-36 -33 -189 -208 -215 -246 -18 -24 -20 -33 -10 -36
12 -5 354 -26 405 -26 16 0 43 28 102 105 97 127 105 140 88 152 -16 12 -284
73 -319 73 -15 0 -38 -10 -51 -22z"/>
<path id="path4" d="M16251 29764 c-45 -59 -85 -112 -87 -119 -4 -9 22 -16 93 -24 549
-68 1080 -183 1288 -281 11 -5 79 -35 150 -66 259 -113 532 -252 807 -410 81
-47 90 -49 76 -16 -25 58 -51 82 -155 143 -60 35 -110 66 -113 69 -3 4 -12 9
-20 13 -22 10 -77 43 -208 128 -115 75 -192 118 -282 157 -25 11 -88 39 -140
62 -126 56 -337 141 -485 197 -273 103 -757 253 -815 253 -22 0 -41 -19 -109
-106z"/>
<path id="path5" d="M11150 26362 c-45 -14 -63 -60 -40 -103 24 -43 110 -9 110 44 0 40
-36 70 -70 59z"/>
<path id="path6" d="M16719 26316 c-30 -14 -47 -60 -33 -84 6 -9 23 -24 37 -32 24 -13 30
-13 54 0 74 42 18 154 -58 116z"/>
<path id="path7" d="M20422 25467 c13 -13 39 -34 58 -47 67 -45 171 -132 166 -138 -7 -6
-74 22 -139 60 -61 36 -93 38 -57 5 14 -13 32 -26 40 -30 8 -4 74 -50 145
-102 72 -53 189 -136 260 -184 72 -48 173 -117 225 -152 52 -35 120 -83 150
-106 30 -23 101 -77 158 -120 57 -43 157 -118 221 -168 65 -49 165 -126 222
-169 57 -44 120 -91 139 -106 19 -15 124 -94 233 -176 109 -82 246 -186 305
-232 59 -45 132 -99 162 -120 67 -47 178 -107 186 -100 6 6 -84 114 -118 142
-49 40 -218 197 -373 346 -247 238 -337 311 -730 595 -121 87 -276 199 -345
249 -196 141 -368 258 -465 316 -50 29 -117 70 -150 90 -63 39 -197 119 -253
151 -47 28 -69 25 -40 -4z"/>
<path id="path8" d="M17188 25406 c-159 -81 -364 -175 -508 -231 -312 -122 -1091 -343
-1610 -455 -213 -46 -266 -63 -281 -91 -14 -26 5 -57 39 -65 15 -3 32 -7 37
-8 20 -6 944 13 1180 23 514 23 986 62 1405 117 215 28 250 27 361 -12 88 -31
204 -38 219 -14 31 48 5 90 -171 285 -64 72 -181 210 -260 309 -79 98 -157
187 -173 197 -52 32 -85 24 -238 -55z"/>
<path id="path9" d="M12859 25393 c-41 -43 -102 -113 -134 -157 -32 -43 -76 -91 -97 -106
-60 -44 -68 -45 -553 -80 -448 -33 -977 -83 -1384 -131 -282 -33 -320 -32
-482 15 -187 54 -529 136 -569 136 -33 0 -48 -6 -71 -29 -33 -33 -36 -69 -18
-201 19 -138 38 -323 58 -550 18 -211 31 -377 66 -885 42 -599 51 -698 70
-735 25 -49 60 -65 131 -63 84 4 98 -9 92 -91 -9 -124 -218 -727 -366 -1051
-25 -55 -66 -136 -93 -180 -26 -44 -62 -111 -79 -150 -52 -112 -90 -184 -146
-275 -103 -169 -123 -228 -83 -253 28 -18 63 1 210 108 307 226 534 452 772
768 131 175 170 211 236 226 25 5 165 12 311 16 l266 6 109 -71 c145 -94 204
-145 225 -194 12 -27 22 -90 30 -186 6 -80 13 -179 17 -220 7 -90 -10 -141
-54 -164 -44 -22 -696 -41 -1043 -30 -365 11 -374 11 -403 -5 -38 -20 -51 -59
-37 -112 17 -63 57 -127 93 -150 43 -25 78 -24 312 11 240 35 614 70 752 70
114 0 111 1 268 -123 88 -71 154 -148 173 -203 5 -18 23 -158 38 -314 l28
-282 -19 -36 c-38 -68 -52 -72 -251 -82 -422 -21 -797 -41 -1044 -57 -166 -11
-414 -18 -665 -18 -476 -2 -475 -2 -475 -102 0 -45 50 -149 88 -186 45 -44 83
-43 307 1 110 22 241 45 290 51 50 6 144 18 210 26 130 16 818 60 1490 95 105
6 255 14 335 20 80 5 285 16 455 25 482 24 826 44 1120 65 149 11 369 26 490
35 268 19 487 42 538 57 46 14 87 59 87 97 0 15 -14 49 -31 74 -61 93 -423
410 -581 510 -44 28 -83 22 -111 -15 -27 -36 -152 -282 -188 -368 -33 -80 -76
-147 -110 -170 -21 -15 -54 -24 -121 -30 -130 -13 -396 -28 -706 -41 -249 -10
-265 -9 -300 8 -53 27 -79 85 -91 208 -6 55 -20 198 -32 318 l-22 218 21 44
c32 66 85 119 168 169 87 53 74 51 529 66 353 12 874 37 929 45 56 8 91 30
106 65 23 55 1 97 -112 215 -147 155 -441 402 -498 420 -48 15 -82 -30 -211
-281 -51 -99 -104 -194 -117 -212 -50 -66 -64 -69 -409 -80 -367 -12 -395 -8
-433 53 -26 42 -35 98 -55 345 -18 216 -18 212 44 341 21 42 43 72 63 84 33
19 -51 15 1108 49 314 10 497 19 520 27 80 27 104 79 71 155 -38 86 -464 485
-577 541 -71 35 -89 15 -268 -302 -53 -94 -110 -182 -127 -197 -47 -40 -94
-47 -344 -49 -284 -3 -281 -4 -410 139 -137 152 -147 169 -146 257 0 86 11
112 76 185 25 28 45 52 45 55 0 27 -27 58 -68 79 -90 46 -418 132 -653 171
-87 15 -100 15 -133 1 -60 -25 -67 -68 -41 -261 8 -60 17 -153 21 -205 l6 -95
-48 -78 c-58 -96 -194 -244 -249 -268 -33 -15 -67 -19 -193 -19 -168 0 -213
10 -233 54 -18 38 -4 85 66 225 69 138 99 172 185 216 43 22 50 30 50 55 0 21
-9 36 -32 53 -43 32 -151 86 -258 127 -147 58 -153 67 -125 188 19 84 41 116
89 131 51 16 1568 87 2008 94 124 2 143 -10 175 -109 47 -146 66 -161 198
-150 146 11 400 100 503 176 65 47 76 82 68 215 -34 590 -60 1468 -45 1550 8
43 43 80 118 125 56 33 85 80 77 125 -11 55 -183 202 -408 348 -242 157 -254
159 -359 50z m-254 -507 c67 -28 70 -41 73 -322 4 -275 -1 -306 -53 -340 -30
-20 -100 -27 -485 -49 -282 -16 -402 -24 -715 -51 -99 -8 -238 -19 -310 -24
-71 -5 -204 -16 -295 -25 -369 -34 -395 -32 -426 27 -21 40 -33 177 -34 368 0
244 -9 237 375 279 99 11 212 23 250 26 39 3 111 10 160 16 365 38 1197 105
1343 108 52 0 95 -4 117 -13z m35 -894 c41 -31 48 -73 56 -348 6 -247 6 -262
-13 -305 -36 -81 46 -71 -938 -114 -181 -8 -499 -24 -705 -35 -570 -32 -568
-32 -604 39 -17 33 -35 225 -38 426 -3 111 0 135 15 158 38 58 58 62 577 101
179 14 379 30 445 35 66 6 269 20 450 31 182 11 393 24 470 29 175 11 252 7
285 -17z"/>
<path id="path10" d="M19451 25144 c-17 -14 -61 -76 -98 -137 -108 -180 -239 -371 -372
-542 -196 -254 -646 -690 -906 -880 -180 -131 -220 -179 -189 -224 24 -33 71
-26 258 38 431 148 815 316 1106 484 52 30 156 89 230 132 161 93 307 190 449
297 133 101 169 119 261 129 74 8 100 23 100 55 0 31 -113 140 -281 270 -42
32 -145 122 -229 199 -235 215 -266 232 -329 179z"/>
<path id="path11" d="M15831 24441 c-12 -12 -21 -26 -21 -32 0 -7 29 -84 64 -173 95 -238
142 -439 156 -671 10 -171 22 -223 63 -265 110 -112 306 -118 414 -11 126 124
164 321 99 515 -41 122 -98 209 -211 323 -111 111 -225 191 -390 273 -127 63
-147 68 -174 41z"/>
<path id="path12" d="M17233 24428 c-26 -29 -33 -54 -79 -263 -67 -313 -172 -645 -285
-900 -69 -158 -80 -206 -54 -235 35 -39 80 -20 255 106 237 170 435 353 740
681 82 88 88 93 158 114 94 28 114 47 96 94 -10 26 -121 99 -244 160 -63 32
-176 92 -250 135 -74 43 -158 89 -187 104 -66 33 -122 34 -150 4z"/>
<path id="path13" d="M14862 24318 c-19 -19 -15 -41 32 -166 105 -281 149 -471 166 -714
17 -254 34 -294 148 -350 126 -62 266 -39 352 58 57 65 109 188 116 274 27
325 -206 637 -637 852 -118 58 -155 68 -177 46z"/>
<path id="path14" d="M19500 23522 c-31 -15 -46 -40 -130 -207 -167 -334 -361 -634 -539
-835 -295 -332 -529 -559 -709 -690 -218 -157 -252 -188 -252 -226 0 -31 27
-49 74 -49 76 1 449 128 741 252 461 196 973 517 1350 848 140 122 175 143
254 151 61 7 91 23 91 48 0 38 -110 143 -321 306 -53 41 -173 144 -265 228
-210 191 -233 205 -294 174z"/>
<path id="path15" d="M21515 23384 c-52 -19 -81 -48 -101 -101 -20 -50 -10 -100 28 -148
24 -31 90 -64 128 -65 180 -1 264 221 117 310 -38 24 -113 25 -172 4z"/>
<path d="M16075 23071 c-11 -5 -27 -17 -36 -27 -36 -42 -39 -76 -28 -337 12
-281 9 -358 -15 -405 -29 -56 -53 -62 -267 -62 -189 0 -274 4 -705 36 -121 9
-237 14 -256 10 -48 -9 -88 -47 -88 -84 0 -81 72 -192 135 -208 29 -7 67 -3
285 32 71 11 171 17 310 18 178 1 209 -1 237 -17 74 -40 74 -99 0 -307 -31
-85 -77 -204 -102 -265 -26 -60 -66 -155 -90 -210 -134 -317 -244 -535 -457
-905 -61 -107 -161 -258 -268 -405 -76 -105 -110 -164 -110 -189 0 -9 11 -23
24 -31 22 -15 28 -15 63 0 21 9 58 33 83 54 25 20 95 77 155 126 255 206 548
485 778 742 132 147 172 179 213 169 49 -13 59 -47 56 -196 -6 -320 -40 -658
-109 -1070 -14 -85 -26 -186 -27 -223 -1 -63 1 -70 27 -93 62 -53 210 -23 402
82 140 77 167 106 215 238 21 58 44 130 50 159 6 29 19 82 30 117 83 270 134
638 160 1160 13 251 23 301 69 319 60 25 93 -8 222 -221 137 -226 194 -366
240 -592 26 -123 44 -153 118 -190 180 -91 400 -29 511 144 39 60 70 156 70
214 0 66 -35 189 -77 268 -49 93 -214 261 -334 340 -158 104 -344 188 -581
263 -201 63 -223 89 -223 265 0 131 10 159 71 187 31 15 52 16 222 4 188 -12
529 -40 805 -65 168 -15 211 -10 245 30 42 48 14 112 -111 254 -181 207 -456
450 -508 450 -34 0 -88 -62 -212 -245 -148 -218 -151 -220 -292 -220 -80 0
-108 4 -139 20 -71 36 -81 59 -85 207 -4 160 6 192 84 267 30 29 55 61 55 70
0 55 -187 146 -530 259 -196 64 -252 77 -285 63z"/>
<path d="M21935 22315 c-30 -30 -31 -54 -4 -89 15 -19 30 -26 54 -26 36 0 75
36 75 70 0 10 -9 29 -21 44 -27 34 -71 35 -104 1z"/>
<path d="M19587 21549 c-22 -13 -42 -52 -110 -219 -101 -245 -280 -554 -425
-731 -75 -92 -196 -211 -326 -319 -264 -220 -674 -443 -1411 -767 -327 -144
-447 -216 -431 -259 9 -24 52 -16 281 50 105 30 260 73 345 94 226 59 484 129
570 157 41 13 138 40 215 61 133 35 483 156 665 231 145 60 389 185 530 273
247 155 434 308 644 528 82 87 166 167 186 179 20 13 66 27 104 32 86 12 104
27 86 71 -19 46 -161 157 -330 259 -30 18 -77 50 -105 71 -250 186 -365 269
-392 283 -36 19 -70 21 -96 6z"/>
<path d="M21810 21480 c0 -5 -9 -10 -20 -10 -31 0 -24 -16 28 -57 26 -21 49
-40 52 -43 6 -6 79 -64 215 -169 50 -39 117 -93 150 -120 33 -28 103 -85 155
-128 91 -74 178 -154 316 -290 35 -35 69 -63 76 -63 10 0 -34 52 -92 110 -3 3
-31 36 -63 73 -62 74 -358 365 -447 441 -275 232 -370 298 -370 256z"/>
<path d="M20424 19974 c-37 -18 -74 -79 -74 -122 0 -94 81 -162 194 -162 157
0 224 192 97 277 -28 19 -47 23 -110 23 -48 0 -88 -6 -107 -16z"/>
<path d="M8775 18794 c-46 -24 -64 -44 -76 -85 -41 -136 128 -240 229 -140 73
74 51 186 -45 227 -42 18 -71 18 -108 -2z"/>
<path d="M16822 18214 c-32 -22 -30 -78 3 -100 61 -40 127 44 75 96 -24 24
-48 25 -78 4z"/>
<path d="M14092 17414 c-45 -31 -17 -104 40 -104 61 0 83 98 25 114 -33 9 -40
8 -65 -10z"/>
<path d="M12490 17287 c0 -24 4 -68 9 -98 6 -30 15 -101 21 -159 11 -95 25
-199 50 -365 5 -33 14 -98 20 -145 7 -47 16 -103 20 -125 5 -22 12 -56 15 -76
5 -35 73 -119 96 -119 10 0 3 98 -13 175 -6 28 -14 93 -18 145 -11 128 -25
219 -39 253 -6 16 -11 91 -11 178 0 82 -4 157 -10 167 -5 9 -12 56 -15 103
l-7 86 -37 12 c-71 21 -81 17 -81 -32z"/>
<path d="M16066 16975 c-21 -16 -56 -87 -56 -114 0 -9 -4 -21 -8 -26 -4 -6
-14 -28 -21 -50 -14 -42 -29 -78 -66 -160 -13 -27 -30 -66 -38 -85 -8 -19 -25
-57 -37 -85 -12 -27 -25 -59 -30 -70 -4 -11 -13 -33 -19 -48 -6 -15 -11 -37
-11 -47 0 -27 44 -26 71 1 18 18 81 143 118 234 5 11 13 31 20 45 6 14 27 71
46 128 20 56 47 128 60 159 14 31 28 73 31 95 6 35 5 38 -17 38 -13 0 -33 -7
-43 -15z"/>
<path d="M11862 16912 c-77 -72 -32 -202 69 -202 54 0 83 16 109 62 17 30 20
48 15 75 -16 88 -128 126 -193 65z"/>
<path d="M16996 16647 c-21 -15 -21 -4 3 -231 10 -90 0 -142 -29 -151 -27 -9
-55 9 -67 42 -37 103 -53 164 -53 205 0 57 -9 63 -102 73 -77 8 -113 2 -122
-21 -3 -9 14 -79 39 -155 55 -170 57 -195 13 -213 -92 -38 -130 -28 -102 25
27 53 13 112 -39 167 -43 45 -92 69 -167 81 -97 16 -102 3 -35 -87 24 -34 56
-85 71 -114 14 -29 40 -67 56 -84 l30 -32 -70 -16 c-39 -9 -78 -13 -86 -10 -9
3 -25 21 -37 40 -32 52 -45 44 -52 -31 -7 -70 -21 -103 -74 -179 -42 -59 -50
-100 -30 -149 21 -49 72 -74 124 -61 30 7 43 18 63 54 22 40 25 56 25 149 l0
105 30 11 c17 7 77 22 135 35 112 24 507 121 677 167 118 32 127 29 144 -47 8
-35 7 -46 -6 -59 -14 -14 -21 -13 -81 8 -62 22 -66 22 -85 6 -10 -10 -19 -24
-19 -32 0 -8 -7 -27 -15 -43 -19 -37 -69 -55 -300 -110 l-180 -43 -99 22
c-135 31 -135 31 -82 -148 38 -126 61 -223 71 -288 13 -82 52 -96 133 -47 33
21 53 42 66 72 16 35 26 44 59 53 59 16 80 9 101 -35 28 -58 32 -117 10 -137
-25 -22 -180 -59 -246 -59 -29 1 -88 9 -130 19 -61 14 -81 16 -94 7 -18 -13
-15 -30 32 -181 33 -104 88 -321 104 -408 11 -58 16 -68 37 -73 14 -4 42 -1
64 5 47 14 119 80 119 109 0 12 -20 83 -44 159 -72 222 -83 270 -66 287 13 13
209 66 243 66 25 0 49 -38 67 -107 10 -37 25 -88 33 -113 8 -25 27 -92 42
-150 47 -178 49 -184 75 -199 23 -12 31 -11 84 15 62 30 96 68 96 107 0 13
-21 83 -46 153 -103 288 -116 342 -91 362 13 10 220 72 243 72 27 0 51 -42 84
-145 41 -126 38 -133 -45 -156 -33 -8 -60 -20 -63 -27 -2 -6 15 -16 38 -22 43
-12 120 -73 120 -96 0 -20 46 -47 68 -39 35 10 102 65 122 98 31 50 25 107
-25 252 -45 130 -54 178 -35 190 19 12 10 54 -14 71 -33 21 -155 64 -184 64
-18 0 -28 -12 -51 -63 -21 -47 -36 -67 -57 -75 -40 -16 -203 -62 -219 -62 -23
0 -51 45 -65 105 -13 52 -12 57 6 75 11 11 41 23 67 26 41 6 53 3 79 -16 29
-21 31 -22 73 -5 24 9 55 25 69 36 48 38 49 51 13 146 -19 49 -37 102 -41 120
-11 50 18 133 69 191 24 29 54 67 66 85 13 17 36 43 52 57 21 19 28 31 23 46
-7 22 -180 134 -207 134 -23 0 -37 -19 -54 -78 -8 -27 -21 -54 -28 -60 -20
-16 -164 -55 -181 -49 -22 9 -20 36 8 82 14 22 45 78 70 125 53 98 52 101 -42
118 -119 22 -137 23 -156 9z m156 -659 c15 -13 68 -153 68 -182 0 -27 -40 -43
-252 -96 -196 -49 -209 -51 -232 -36 -24 15 -46 72 -61 157 -9 51 19 70 146
98 57 13 142 34 189 46 100 28 121 29 142 13z"/>
<path d="M12653 16188 c6 -32 15 -80 35 -178 5 -25 14 -58 21 -73 6 -16 11
-41 11 -57 0 -16 5 -32 10 -35 6 -3 10 -18 10 -32 0 -15 4 -40 9 -57 38 -129
51 -176 73 -261 19 -77 41 -150 49 -167 5 -10 9 -27 9 -37 0 -11 4 -30 9 -43
5 -13 17 -50 26 -83 10 -33 21 -68 26 -77 5 -10 9 -29 9 -42 0 -14 5 -28 10
-31 6 -4 10 8 10 29 0 19 -4 37 -9 40 -5 3 -11 23 -14 43 -6 41 -30 139 -40
163 -3 8 -8 31 -11 50 -5 36 -13 72 -41 195 -9 39 -19 88 -21 110 -3 22 -9 49
-14 60 -5 11 -11 40 -14 65 -3 25 -13 79 -22 120 -9 41 -18 100 -21 130 -3 30
-9 59 -14 65 -5 5 -9 22 -9 38 0 20 -11 39 -35 63 -45 43 -59 44 -52 2z"/>
<path d="M14463 16171 c-95 -32 -177 -104 -214 -185 -27 -60 -25 -160 4 -217
43 -83 132 -105 193 -48 47 44 43 113 -12 181 -43 54 -51 95 -29 142 23 47 82
76 158 76 146 0 235 -107 245 -295 9 -180 -33 -258 -318 -581 -124 -140 -189
-231 -239 -331 -51 -103 -40 -137 49 -147 239 -28 432 -46 588 -57 162 -11
184 -11 198 3 16 16 53 265 54 361 0 67 -26 64 -64 -8 -54 -104 -119 -135
-284 -135 -227 0 -382 25 -382 61 0 37 194 239 295 308 25 17 66 45 92 63 84
58 179 155 208 214 86 177 17 428 -149 538 -109 72 -278 96 -393 57z"/>
<path d="M15433 16169 c-76 -24 -138 -69 -180 -133 -60 -89 -71 -202 -28 -293
43 -94 136 -123 197 -62 28 28 30 34 25 81 -4 28 -12 58 -19 68 -7 9 -28 36
-45 60 -40 52 -46 121 -13 162 30 39 113 71 164 63 142 -24 233 -157 237 -345
2 -160 -44 -265 -256 -580 -81 -120 -157 -270 -195 -385 -18 -55 -20 -72 -11
-92 l12 -26 227 6 c250 6 562 38 597 61 19 12 23 26 27 98 8 122 2 308 -11
321 -16 16 -35 -8 -56 -70 -20 -64 -93 -134 -163 -157 -68 -23 -184 -37 -323
-39 -106 -2 -123 0 -133 16 -25 40 105 228 279 402 202 202 245 276 245 426 0
127 -48 237 -142 325 -77 72 -114 91 -204 104 -100 14 -161 11 -231 -11z"/>
<path d="M13015 15924 c-127 -45 -135 -218 -14 -316 79 -64 220 -43 274 41 39
61 49 114 30 171 -17 51 -71 109 -103 111 -93 7 -153 5 -187 -7z"/>
<path d="M12973 14974 c-3 -8 -1 -20 6 -27 8 -8 11 -4 11 16 0 30 -7 35 -17
11z"/>
<path d="M13002 14885 c0 -16 2 -22 5 -12 2 9 2 23 0 30 -3 6 -5 -1 -5 -18z"/>
<path d="M13020 14805 c0 -8 5 -15 10 -15 6 0 10 7 10 15 0 8 -4 15 -10 15 -5
0 -10 -7 -10 -15z"/>
</g>
</svg>
