<?xml version="1.0" encoding="UTF-8"?>
<svg id="_レイヤー_2" data-name="レイヤー 2" xmlns="http://www.w3.org/2000/svg" viewBox="0 0 312.13 316.25">
  <defs>
    <style>
      .cls-1 {
        fill: #094;
        opacity: .17;
      }

      .cls-2 {
        fill: none;
        fill-rule: evenodd;
        stroke: #231815;
        stroke-miterlimit: 10;
        stroke-width: .25px;
      }
    </style>
  </defs>
  <g id="_レイヤー_1-2" data-name="レイヤー 1">
    <rect class="cls-1" width="312.13" height="316.25"/>
    <g>
      <path class="cls-2" d="M71.21,68.75c.41,.27,.82,.55,1.23,.82v1.23l-.41,.41c-.55,.07-1.1,.14-1.65,.21l-.41-.41v-1.23c.07-.21,.14-.41,.21-.62,.34-.14,.69-.27,1.03-.41Z"/>
      <path class="cls-2" d="M185.99,69.58c.55,.41,1.1,.82,1.65,1.23-.21,.48-.41,.96-.62,1.44-.27,.07-.55,.14-.82,.21-.41-.21-.82-.41-1.23-.62v-1.65c.34-.21,.69-.41,1.03-.62Z"/>
      <path class="cls-2" d="M284.94,129.85c1.03,.14,2.06,.27,3.09,.41,2.19,2.63,1.32,6.39-3.09,6.38-1.79-.7-2.4-1.28-3.09-3.09,.3-2.45,1.27-2.81,3.09-3.7Z"/>
      <path class="cls-2" d="M293.38,151.66c1.55,.12,1.59,.29,2.06,1.44-.21,.41-.41,.82-.62,1.23-.55,.07-1.1,.14-1.65,.21l-.82-.82c.18-1.36,.34-1.34,1.03-2.06Z"/>
      <path class="cls-2" d="M264.37,199.79c.89,.41,1.78,.82,2.67,1.23,2.45,4.85-3.4,6.1-6.38,3.7-.14-.82-.27-1.65-.41-2.47,.62-.75,1.23-1.51,1.85-2.26,.75-.07,1.51-.14,2.26-.21Z"/>
      <path class="cls-2" d="M22.66,224.27c.82,.21,1.65,.41,2.47,.62,.41,.82,.82,1.65,1.23,2.47-.51,1.34-.83,2.01-2.26,2.47-1.8,.66-3.08-.41-3.5-1.85v-2.06c.69-.55,1.37-1.1,2.06-1.65Z"/>
      <path class="cls-2" d="M187.85,236.21c.48,.07,.96,.14,1.44,.21,.14,.21,.27,.41,.41,.62-.07,.48-.14,.96-.21,1.44-.34,.14-.69,.27-1.03,.41-1.42-.56-1.51-1.53-.62-2.67Z"/>
      <path class="cls-2" d="M131.89,252.66c.48,.07,.96,.14,1.44,.21,.14,.27,.27,.55,.41,.82-.21,.41-.41,.82-.62,1.23-1.08,.21-1.27,.04-2.06-.41v-1.23l.82-.62Z"/>
      <path class="cls-2" d="M86.22,262.74c3.23-.29,4.79,2.94,2.26,4.32-.89,.07-1.78,.14-2.67,.21-.34-.96-.69-1.92-1.03-2.88,.48-.55,.96-1.1,1.44-1.65Z"/>
      <path class="cls-2" d="M109.67,283.31c1.51,.21,3.02,.41,4.53,.62,.8,1.05,1.29,1.68,1.44,3.5-1.99,4.28-7.46,4.78-8.43-.82,.44-1.92,1.01-2.41,2.47-3.29Z"/>
    </g>
  </g>
</svg>