<?xml version="1.0" encoding="UTF-8"?>
<svg id="_レイヤー_2" data-name="レイヤー 2" xmlns="http://www.w3.org/2000/svg" viewBox="0 0 363.78 363.78">
  <defs>
    <style>
      .cls-1 {
        fill: #094;
        opacity: .17;
      }

      .cls-2 {
        fill: none;
        fill-rule: evenodd;
        stroke: #231815;
        stroke-miterlimit: 10;
        stroke-width: .25px;
      }
    </style>
  </defs>
  <g id="_レイヤー_1-2" data-name="レイヤー 1">
    <rect class="cls-1" width="363.78" height="363.78"/>
    <g>
      <path class="cls-2" d="M143.08,57.46c20.13,2.08,41.3,.09,60.84,2.89,52.95,7.59,92.2,23.36,127.04,48.26,10.77,7.7,24.95,16.33,32.17,27.43-6.71-2.29-11.89-8.45-17.32-12.37-13.99-10.11-27.66-20.36-43.1-29.08-3.61-2.04-20.87-8.52-21.86-11.34h-.21c-4.74,17.39-9.49,34.79-14.23,52.18,31.37,7.65,76.36,40.16,94.46,62.08-7.7-6.26-15.4-12.51-23.1-18.77-21.34-15.27-45.18-30.31-72.39-39.39-5.98,21.03-11.96,42.07-17.94,63.11,8.32,3.85,16.64,7.7,24.95,11.55,17.43,9.87,33.58,20.3,48.26,32.79,6.19,5.64,12.37,11.27,18.56,16.91-4.87,.35-21.12-15.9-26.4-20-18.57-14.42-42.09-29.18-66.41-36.92-.21,.21-.41,.41-.62,.62-5.36,16.77-10.72,33.55-16.09,50.32,21.85,5.03,58.61,28.99,74.24,42.07-.34,.34-.69,.69-1.03,1.03-3.72-4.6-10.63-6.83-15.88-9.9-16.21-9.48-37.89-26.28-58.57-29.7-.21,.21-.41,.41-.62,.62-5.76,22.53-18.16,43.27-27.43,63.52,1.72-4.4,3.44-8.8,5.16-13.2,6.9-16.44,16.41-33.46,19.59-52.18-18.49-9.86-41.8-9.36-67.23-12.37-2.75-.21-5.5-.41-8.25-.62,1.44,15.33,2.89,30.66,4.33,45.99,1.37,6.6,2.75,13.2,4.12,19.8-5.55-19.74-10.67-41.71-11.76-66-21.53-4.42-52.18,1.85-70.53,5.36-5.57,1.07-19.9,6.3-20.83,.62,8.94-2.06,17.87-4.12,26.81-6.19,20-3.08,41.66-3.67,63.93-3.71,.07-.07,.14-.14,.21-.21-.55-18.97-1.1-37.95-1.65-56.92-44.88-2.68-92.68,2.86-123.12,17.94-1.99-.69-3.99-1.37-5.98-2.06,11.75-12.53,67.74-18.78,93.01-20.42,12.17,.14,24.34,.27,36.5,.41,1.17-20.35,2.34-40.7,3.51-61.05l-.21-.21c-27.78-.3-55.38,2.71-79.61,8.66-7.96,1.96-16.63,7.82-23.1,8.87-2.13-.48-4.26-.96-6.39-1.44,12.3-12.72,61.04-17.4,85.38-20.21,8.11-.14,16.22-.28,24.34-.41,1.44-18.01,2.89-36.02,4.33-54.03-33.14-.38-70.37,4.16-92.6,16.71,3.3-2.06,6.6-4.12,9.9-6.19-1.24-.14-2.47-.27-3.71-.41,15.41-5.54,34.13-10.57,55.68-12.99,7.28-.82,14.24-1.27,20.83-1.44Z"/>
      <path class="cls-2" d="M167.42,61.38c-3.51,.14-7.01,.27-10.52,.41l-.21,.21c-1.37,18.01-2.75,36.02-4.12,54.03l.21,.21c24.84-2.71,63.73,4.37,84.56,9.9,8.66,2.54,17.32,5.09,25.99,7.63,2.86-12.55,6.83-24.91,10.11-38.15,1.01-4.07,3.79-8.3,3.09-13.2-9.83-3.3-19.66-6.6-29.49-9.9-22.92-6.57-52.03-11.09-79.61-11.14Z"/>
      <path class="cls-2" d="M161.85,119.74c-3.3,.41-6.6,.82-9.9,1.24-.78,19.69-4.59,40.61-3.3,61.05,11.34,1.17,22.69,2.34,34.03,3.51,21.88,3.84,42.62,8.09,60.84,15.67,.21-.21,.41-.41,.62-.62,5.91-20.76,11.82-41.52,17.74-62.28-7.15-2.27-14.3-4.54-21.45-6.81-23.3-6.24-51.35-9.61-78.58-11.76Z"/>
      <path class="cls-2" d="M148.44,186.36c.27,18.83,.55,37.67,.82,56.51,14.7,.82,28.61,1.63,41.66,4.12,11.96,2.96,23.92,5.91,35.88,8.87,5.22-16.91,10.45-33.82,15.67-50.73-27.56-8.27-59.03-18.53-94.04-18.77Z"/>
      <path class="cls-2" d="M158.55,313.19v0Z"/>
    </g>
  </g>
</svg>