<?xml version="1.0" encoding="UTF-8"?>
<svg id="_レイヤー_2" data-name="レイヤー 2" xmlns="http://www.w3.org/2000/svg" viewBox="0 0 363.78 363.78">
  <defs>
    <style>
      .cls-1 {
        fill: #094;
        opacity: .17;
      }

      .cls-2 {
        fill: none;
        fill-rule: evenodd;
        stroke: #231815;
        stroke-miterlimit: 10;
      }
    </style>
  </defs>
  <g id="_レイヤー_1-2" data-name="レイヤー 1">
    <rect class="cls-1" width="363.78" height="363.78"/>
    <g>
      <path class="cls-2" d="M242.71,99.14c2.9,.23,14.69,14.25,14.4,16.87-2.95-.41-5.9-.82-8.85-1.23-12.25,1.52-25.85,2.22-39.29,3.29-4.95,.39-15.94,1.31-18.72-.82,.07-.27,.14-.55,.21-.82,5.83-1.44,11.66-2.88,17.49-4.32,12.32-3.31,24.87-7.08,34.77-12.96Z"/>
      <path class="cls-2" d="M152.81,99.75c3.91,1.23,12.47,6.03,13.17,10.29-12.83,10.77,9.52,46.18-16.46,43.61-.85-1.42-1.17-5.11-2.88-5.14-20.87-.36-38.64,1.55-45.46,2.67-5.47,7.33,7,6.16,7.2,10.29-2.13,1.04-7.07,6-5.97,9.67,.56,1.86,6.24,1.64,9.23,.72,2.84-.88,7.53-5.44,7.02-9.56-.31-2.57-1.26-5.78-.41-8.43,3.81-.93,15.28,2.02,16.87,4.53-4.96,8.44,2.82,16.44,14.68,12.35,3.83-1.32,6.7-7.3,9.39-10.09,3.6,1.39,12.77,8.42,12.34,12.75-10.26,4.79-36.88-4.11-37.43,8.88-.16,3.86,.3,8.45,1.84,10.87,2.62,.83,5.8,.62,9.26,.62,13.97-.01,7.4-7.83,13.99-11.73,1.34-.79,12.64,9.29,12.96,12.14-.21,.21-.41,.41-.62,.62-15.55,4.21-39.67-3.12-35.17,16.12,.82,3.5,.68,4.51,2.7,6.43,1.69,.82,22.45,.07,23.84-.94,2.06-3.84,4.11-7.68,6.17-11.52,.55-.07,1.1-.14,1.65-.21,3.73,3.3,12.07,7.07,12.96,12.75-.27,.41-.55,.82-.82,1.23-5.12,1.82-11.87,1.06-18.1,1.85-17.22,2.17-33.54,.11-51.22,2.26-6.92,.41-13.85,.82-20.78,1.23-5.97,.89-11.93,1.78-17.9,2.67-.96-1.25-1.71-2.18-1.85-4.32l.62-.82c9.6-.34,19.62-1.2,29.22-1.55,6.84-.9,13.68,.2,19.24-1.98,1.64-2.84,.93-7.11,.3-10.88-1.83-11.02-13.6-10.68-25.1-8.64-1.82,.32-4.52,1.33-6.38,.41-1.15-.74-1.72-1.94-1.85-3.7,.14-.14,.27-.27,.41-.41,6.12-.9,28.23,.52,30.55-3.16,0-1.92,.52-2.53,.52-4.45-.35-2.59,.11-4.53-1.03-6.17-1.86-2.69-6.15-4.78-10.68-4.8-3.29,.27-7.24-1.08-10.56,.58-6.4,3.63-13.97,21.89-22.58,21.7,2.63-6.37,19.53-33.25,15.43-40.73-1.23-.14-2.47-.27-3.7-.41-1.44-16.25-2.88-32.5-4.32-48.75,4.94-1.75,11.21,1.89,16.74,2.1,15.02-1.44,30.57-1.69,45.59-3.13,2.47-2.61,4.94-5.21,7.41-7.82Z"/>
      <path class="cls-2" d="M286.94,105.51c2.73,.32,15.64,11.64,16.66,13.99-.14,.27-.27,.55-.41,.82-6.34,.56-9.08,4.72-13.37,7.41-7.86,4.91-24.52,15.06-35.38,15.43-.21-.27-.41-.55-.62-.82,2.21-4.71,15.34-13.07,19.54-18.1,4.53-6.24,9.05-12.48,13.58-18.72Z"/>
      <path class="cls-2" d="M140.84,110.76c-19.18,1.72-30.91,1.11-40.9,4.01-2.94,.85-1.36,11.62,0,13.78,11.54-.5,44.34-1.84,47.31-3.91,.92-3.49,.9-11-.62-13.58-2.63-.64-3.94-.47-5.8-.3Z"/>
      <path class="cls-2" d="M212.26,120.12c7.54,1.41,24.62,17.41,12.75,24.89-2.64,1.67-7.24,.54-8.43-1.65-.34-3.15-.69-6.31-1.03-9.46-1.37-4.25-2.74-8.5-4.11-12.75,.27-.34,.55-.69,.82-1.03Z"/>
      <path class="cls-2" d="M241.06,120.32c3.41,.02,16.81,7.7,16.66,9.87-7.47,4.69-16.87,18.43-25.3,19.75l-.62-.62c.06-1.38,8.37-27.73,9.26-29.01Z"/>
      <path class="cls-2" d="M192.1,122.79c9.23,.78,25.82,21.34,11.73,26.13-2.42,.82-5.82-.48-6.79-1.85-.62-4.25-1.23-8.5-1.85-12.75-1.1-3.29-2.19-6.58-3.29-9.87-.07-.14-.14-.27-.21-.41,.14-.41,.27-.82,.41-1.23Z"/>
      <path class="cls-2" d="M117.93,130.82c-4.94,.34-7.95,.85-17.37,1.64-2.43,2.4-1.07,11.99,.62,14.4,7.77-.35,15.64-.75,23.58-1.21,7.65-.44,15.22-.93,22.7-1.47,1.22-3.74,1.1-12.27-.82-15.02-.82-.04-19.53,1.02-28.71,1.65Z"/>
      <path class="cls-2" d="M287.97,139.04c3.04,.94,16.29,12.26,17.49,15.02-.07,.21-.14,.41-.21,.62-8.22,1.46-13.36,9.23-19.75,13.17-6.94,4.28-14.23,7.36-22.42,10.49-2.49,.95-6.2,2.94-9.05,2.06-.07-.41-.14-.82-.21-1.23,7.95-7.36,16.67-13.26,23.04-22.22,3.02-4.25,7.27-15.28,11.11-17.9Z"/>
      <path class="cls-2" d="M217.2,148.51c4.76,.36,14.47,3.37,16.46,6.79v.41c-2.44,1.91-4.33,6.84-1.85,10.49,8.82,3.8,8.94-6.4,13.99-8.85,3.93,1.41,13.44,9.69,12.96,14.4-6.53,3.95-20.72-4.11-27.57,.21-.38,1.78-.83,5.07,.21,6.58,1.45,2.1,6.34,2.48,8.85,3.5,5.95,2.41,20.32,10.5,14.61,20.37-1.83,3.16-9.74,6.86-12.75,2.06-.41-1.99-.82-3.98-1.23-5.97-1.28-4.43-4.48-11.5-8.23-13.58-3.38,1.75-1.86,10.35-2.47,14.81-1.64,12.07-2.23,26.33-13.78,28.59-1.5,.29-3.43-.02-3.91-.82-1.1-1.85,3.66-25.45,2.47-31.68-.41-.21-.82-.41-1.23-.62-7.45,3.03-17.86,22.79-26.33,22.63l-.41-.41v-.41c2.33-3.5,4.66-6.99,6.99-10.49,4.42-7.3,8.23-15.36,11.73-23.45,.95-2.2,5.32-10.83,2.88-12.75-4.18-3.3-14.22,1.31-18.51,.21-.98-1.26-1.72-2.12-1.85-4.32,.14-.21,.27-.41,.41-.62,4.15-2.8,19.46,1.45,26.13-.21,2.1-3.87-.97-12.54,1.44-16.05,.34-.27,.69-.55,1.03-.82Z"/>
      <path class="cls-2" d="M289.41,179.78c2.91,.3,18.25,11.43,18.93,13.78l-.41,.41c-7.46,.96-11.77,9.38-17.07,13.17-12.76,9.12-29.81,13-47.11,17.69-2.96,.8-7.02,3.07-10.29,2.47v-.62c.07-.07,.14-.14,.21-.21,12.28-8.86,28.23-12.35,39.91-22.01,5.06-4.18,9.09-10.74,12.14-16.87,1.35-2.71,1.8-5.73,3.7-7.82Z"/>
      <path class="cls-2" d="M272.33,269.88c1.37,.48,2.74,.96,4.11,1.44-.12,2.07,.08,2.67,.82,4.11,.82-.21,1.65-.41,2.47-.62,.21-1.1,.41-2.19,.62-3.29h.21c.62,1.63,1.19,2.36,2.47,3.29v1.23c-1.03,.82-2.06,1.65-3.09,2.47,.75,.34,1.51,.69,2.26,1.03v.21c-.69,1.71-1.37,3.43-2.06,5.14,.07,.07,.14,.14,.21,.21,1.99-.41,3.98-.82,5.97-1.23v.21c-.55,1.3-1.1,2.61-1.65,3.91-.75,.21-1.51,.41-2.26,.62,.55,.41,1.1,.82,1.65,1.23-.86,2.01-.17,4.63,.82,6.58h.41c.48-.89,.96-1.78,1.44-2.67,.96,.41,1.92,.82,2.88,1.23-.07,.34-.14,.69-.21,1.03-9.87,5.01-19.75,10.01-29.62,15.02-.8-1.89,1.46-1.81,3.09-2.88-1.1-3.43-2.19-6.86-3.29-10.29,8.19-2,16.06-3.7,19.75-9.46-4.92,.04-6.4,3.97-10.08,5.55,.07-.21,.14-.41,.21-.62,1.69-1.41,4.72-3.84,4.73-6.17-2.17-1.41-4.61-1.95-6.79-3.29-.19-4.45-1.62-6.95-2.26-10.9l.21-.21c2.06,.14,4.31,.44,5.76-.41,.41-.82,.82-1.65,1.23-2.47Z"/>
      <path class="cls-2" d="M270.69,273.79c-.21,.07-.41,.14-.62,.21-.48,3.27,.07,6.07-1.03,9.05v.21c3.07-.13,7.62-1.58,8.64-3.91-4.19-.84-3.84-2.5-5.55-5.55h-1.44Z"/>
      <path class="cls-2" d="M257.11,274.4l.82,.41c-.34,1.23-.69,2.47-1.03,3.7h1.85c.41-.96,.82-1.92,1.23-2.88,1.96,.15,3.42,.85,4.53,1.85-.54,2.23-.12,4.36,2.47,4.73-1.84,3.62,2.21,6.79,1.65,11.31-2.28,1.99-2.53,1.38-4.73-.21-.75,.27-1.51,.55-2.26,.82-.75-1.71-1.51-3.43-2.26-5.14,.62-.67,1.78-.82,2.88-.41,.41,1.1,.82,2.19,1.23,3.29,.41-.07,.82-.14,1.23-.21,.07-.07,.14-.14,.21-.21-.69-1.78-1.37-3.57-2.06-5.35-.07-.07-.14-.14-.21-.21-1.51,.96-3.02,1.92-4.53,2.88,.33,4.61,.67,8.67-1.65,11.52-.21,.07-.41,.14-.62,.21,.23-3.29,.65-6.76-.82-9.26-.69,.14-1.37,.27-2.06,.41-.48-1.1-.96-2.19-1.44-3.29,.69-.48,1.37-.96,2.06-1.44-.89-2.54-1.78-5.07-2.67-7.61,.14-.07,.27-.14,.41-.21h3.5c-.41-1.44-.82-2.88-1.23-4.32,1.17-.14,2.33-.27,3.5-.41Z"/>
      <path class="cls-2" d="M258.76,279.55c-1.23,.62-2.47,1.23-3.7,1.85,.62,1.44,1.23,2.88,1.85,4.32,.21,.07,.41,.14,.62,.21,1.44-.82,2.88-1.65,4.32-2.47-.55-1.23-1.1-2.47-1.65-3.7-.48-.07-.96-.14-1.44-.21Z"/>
      <path class="cls-2" d="M236.13,280.58c1.58,.34,3.15,.69,4.73,1.03v.41c-1.13,1.23-2.87,4.02-2.67,5.76,3.47-.23,3.94-1.44,5.14-3.91h.41c1.37,.82,2.74,1.65,4.11,2.47,.07,.27,.14,.55,.21,.82-6.05,4.44-3,6.23-3.09,12.14-2.61,1.89-3.45,.4-6.58,1.23-.14,.14-.27,.27-.41,.41,.34,1.1,.69,2.19,1.03,3.29,3.3,.59,5.73-1.39,6.79-3.91,1.58,.55,3.15,1.1,4.73,1.65-.44,3.9,2.03,6.54,1.03,10.49-.96,.62-1.92,1.23-2.88,1.85-1.44-1.17-2.88-2.33-4.32-3.5,.96-.34,1.92-.69,2.88-1.03-.62-1.78-1.23-3.57-1.85-5.35-1.85,.41-3.7,.82-5.55,1.23l-.21,.21c1.03,3.7,2.06,7.41,3.09,11.11-1.03,.69-2.06,1.37-3.09,2.06-.41-.21-.82-.41-1.23-.62-1.1-3.7-2.19-7.41-3.29-11.11-1.85,.34-3.7,.69-5.55,1.03-.07,.07-.14,.14-.21,.21,.75,3.29,1.51,6.58,2.26,9.87-5.18,4.1-6.74-7.15-7.41-11.93,.21-.14,.41-.27,.62-.41,3.1,1.09,7.16,.95,9.67-.62-.34-1.17-.69-2.33-1.03-3.5-2.79,.24-3.62,2.23-5.55,3.5-.27-.07-.55-.14-.82-.21-.82-3.63-1.65-7.27-2.47-10.9h.21c5.78,.42,9.98-.21,14.81-4.11,1.03,.27,2.06,.55,3.09,.82l.41-.41c-.21-.75-.41-1.51-.62-2.26l-.21-.21c-6.58,1.65-13.17,3.29-19.75,4.94,.27,2.66,.48,5.31-1.65,6.17-.75-.14-1.51-.27-2.26-.41-.21-.82-.41-1.65-.62-2.47,1.44-2.04,1.79-3.49,2.67-6.38h.41c.48,.55,.96,1.1,1.44,1.65,.96-.27,1.92-.55,2.88-.82-.07-.07-.14-.14-.21-.21-1.3-2.06-2.61-4.11-3.91-6.17,.07-.07,.14-.14,.21-.21,6.01,.69,4.31,3.01,5.76,6.38,.89-.27,1.78-.55,2.67-.82-.62-2.33-1.23-4.66-1.85-6.99,.07-.21,.14-.41,.21-.62,1.51,.14,3.02,.27,4.53,.41-.1,2.61,.58,5.09,2.06,6.17,.27-.07,.55-.14,.82-.21,.39-2.21-.77-6.21,.41-8.02Z"/>
      <path class="cls-2" d="M256.29,281.19c1.95-.04,2.65,.31,3.7,1.03,.07,.55,.14,1.1,.21,1.65-1.79,1.14-4.12-.94-3.91-2.67Z"/>
      <path class="cls-2" d="M276.05,283.09c-1.38,.34-1.62,.32-2.96,1.23,.98,.35,2.47,.48,3.29,.62,.27-.34,.55-.69,.82-1.03,.07-.55,.03-.68,.09-1.22-.48,0-.79,.29-1.25,.4Z"/>
      <path class="cls-2" d="M184.7,290.24c7.3-1.59,14.21,5.9,10.08,13.17-2.8,4.92-9.55,6.3-11.73,12.03,.14,.14,2.93,.64,3.07,.78,2.73,.56,6.01,.86,8.46-.67,1.38-.86,1.53-2.55,3.09-3.29-.34,2.81-.69,5.62-1.03,8.43-2.61,.62-8.73,.08-13.25-.7-2.5-.43-5.35-.43-4.85-1.55,5.46-12.24,15.71-17.72,12.14-24.1-1.28-2.28-3.5-2.45-3.5-2.45-.33-.06-1.92-.32-3.25,.76-1.25,1.02-1.37,2.49-1.38,2.73-.11,1.82,1.27,2.91,1.28,3.13,.04,.9-1.04,2.5-1.8,2.01-5.82-3.77-1.02-9.48,2.67-10.29Z"/>
      <path class="cls-2" d="M204.86,290.24c4.71-.96,8.08,.93,9.26,4.11,3.32,8.96-6.79,14.86-8.89,22.13-.24,.82,3.99,.29,4.18,.28,5.37-.26,6.46-.83,8.83-5.74h.41c.07,2.81,.14,5.62,.21,8.43-.66,1.15-16.73,2.6-17.9,.62,1.79-5.91,16.2-23.05,6.17-27.77-1.9-.26-3.46,.25-4.46,1.63-1.24,1.73,.68,2.91,1.37,5.98,.28,1.23-2.86,2.45-3.7,1.03-2.82-4.73,.05-9.78,4.53-10.7Z"/>
      <path class="cls-2" d="M278.47,293.02c-.48,.27-1.13,.62-1.61,.9-.42,2.17,1.1,3.93,1.98,5.68,.75-.27,1.3-.67,2.05-.94-.08-2.32-.81-4.72-2.42-5.63Z"/>
      <path class="cls-2" d="M237.77,294.15c-2.81,.82-5.62,1.65-8.43,2.47-.35,1.73,.38,3.72,1.65,4.53,3.09-.82,6.17-1.65,9.26-2.47,.07-.07,.14-.14,.21-.21-.55-1.44-1.1-2.88-1.65-4.32h-1.03Z"/>
      <path class="cls-2" d="M272.54,295.85c-.48,.27-1.46,.81-1.94,1.08,.48,3.15,.86,3.19,2.11,5.57,.75-.27,1.47-.76,2.23-1.03-.07-2.42-.5-4.91-2.4-5.62Z"/>
      <path class="cls-2" d="M264.52,298.88c.75,2.4,.95,3.96,2.14,6.24,.68-.13,2.06-.79,2.06-.86-.39-1.94-.61-3.04-1.94-6-.41-.07-1.92,.34-2.26,.62Z"/>
    </g>
  </g>
</svg>